<?xml version="1.0" encoding="utf-8"?>
<!-- Generator: Adobe Illustrator 24.3.0, SVG Export Plug-In . SVG Version: 6.00 Build 0)  -->
<svg version="1.1" id="Layer_1" xmlns="http://www.w3.org/2000/svg" xmlns:xlink="http://www.w3.org/1999/xlink" x="0px" y="0px"
	 viewBox="0 0 500 250" style="enable-background:new 0 0 500 250;" xml:space="preserve">
<style type="text/css">
	.st0{fill:#0656A5;}
</style>
<path class="st0" d="M423.61,49.48H500l-37.9,139.66h-76.29L423.61,49.48L423.61,49.48z M325.78,49.48h76.29l-37.01,133.79
	c-8.93,32.41-34.72,66.72-87.7,66.72H162.98l17.56-45.34h52.58c24.8,0,52.48-11.9,58.53-33.45L325.78,49.48L325.78,49.48z M316.76,0
	h-78.58l-36.61,134.05c-3.57,13.02-8.53,20.52-26.39,20.52h-66.77c-15.18,0-14.78-7.76-11.61-18.97l10.32-37.07
	c2.58-9.22,6.05-13.36,20.14-13.36h65.78l9.82-35.78H75.08c-30.26,0-48.51,12.67-55.66,38.79L2.16,150.86
	c-7.14,26.21,3.97,38.28,25.79,38.28h186.72c39.19,0,54.37-13.28,61.21-38.53L316.76,0z"/>
</svg>
