<?xml version="1.0" encoding="utf-8"?>
<!-- Generator: Adobe Illustrator 24.3.0, SVG Export Plug-In . SVG Version: 6.00 Build 0)  -->
<svg version="1.1" id="Get_Shot" xmlns="http://www.w3.org/2000/svg" xmlns:xlink="http://www.w3.org/1999/xlink" x="0px" y="0px"
	 viewBox="0 0 303.55 99.32" style="enable-background:new 0 0 303.55 99.32;" xml:space="preserve">
<style type="text/css">
	.st0{stroke:#FFFFFF;stroke-width:2;stroke-miterlimit:10;}
</style>
<g>
	<path class="st0" d="M12.16,98.32C6.27,98.32,1,95.8,1,85.96V13.48C1,3.64,6.27,1,12.16,1c5.48,0,11.37,2.88,11.37,12.36v39
		L13.3,52.24V10.96c0-0.6-0.21-1.32-1.03-1.32c-0.83,0-1.03,0.72-1.03,1.32v77.4c0,0.6,0.1,1.32,0.93,1.32s1.14-0.72,1.14-1.32
		V71.32h-1.14v-9.36h11.37v23.88C23.53,95.32,17.64,98.32,12.16,98.32z"/>
	<path class="st0" d="M45.75,1.36h16.54v9.24h-6.3v51.36h6.3v9.24h-6.3v17.28h6.3v9.24H45.75V1.36z"/>
	<path class="st0" d="M96.9,97.6H86.67v-87h-4.13V1.36h18.5v9.24H96.9V97.6z"/>
	<path class="st0" d="M162.93,98.32c-5.89,0-11.16-2.64-11.16-12.48v-7.8H162v9.72c0,1.08,0.21,1.92,1.03,1.92s1.03-0.96,1.03-1.92
		v-13.2c0-2.04,0.1-3.24-1.86-4.08l-5.58-2.4c-3.41-1.44-4.86-4.32-4.86-8.04V13.48c0-9.84,5.27-12.48,11.16-12.48
		c5.48,0,11.37,3,11.37,12.36v38.88h-10.23V11.08c0-0.72-0.21-1.44-1.03-1.44S162,10.36,162,10.96v44.76c0,2.4,0.62,3.48,2.69,4.32
		l4.65,1.92c3.41,1.44,4.96,4.2,4.96,8.16v15.6C174.3,95.2,168.41,98.32,162.93,98.32z"/>
	<path class="st0" d="M208.82,71.08h-2.07V97.6h-10.23V1.36h10.23v60.48h2.07V1.36h10.23V97.6h-10.23L208.82,71.08L208.82,71.08z"/>
	<path class="st0" d="M252.94,98.32c-5.89,0-11.16-2.64-11.16-12.48V13.48c0-9.84,5.27-12.48,11.16-12.48
		c5.48,0,11.37,3,11.37,12.36v72.48C264.31,95.32,258.42,98.32,252.94,98.32z M253.05,9.64c-0.83,0-1.03,0.72-1.03,1.32v77.4
		c0,0.6,0.1,1.32,0.93,1.32s1.14-0.72,1.14-1.32v-77.4C254.08,10.36,253.87,9.64,253.05,9.64z"/>
	<path class="st0" d="M298.41,97.6h-10.23v-87h-4.13V1.36h18.5v9.24h-4.13V97.6z"/>
</g>
</svg>
