<?xml version="1.0" encoding="utf-8"?>
<!-- Generator: Adobe Illustrator 25.0.0, SVG Export Plug-In . SVG Version: 6.00 Build 0)  -->
<svg version="1.1" id="Menu_selector" xmlns="http://www.w3.org/2000/svg" xmlns:xlink="http://www.w3.org/1999/xlink" x="0px"
	 y="0px" viewBox="0 0 692.5217 942.2609" enable-background="new 0 0 692.5217 942.2609" xml:space="preserve">
<path id="whitesmoke" display="none" fill="#412D2D" stroke="#000000" stroke-width="2" stroke-miterlimit="10" d="
	M294.3342,575.9293l-250.41,144.57c67.36,105.09,183.01,176.25,315.63,182.18v-289.09
	C333.4442,609.2194,310.5142,595.4694,294.3342,575.9293z M259.4941,781.6494c-34.52,0-62.5-27.98-62.5-62.5
	c0-34.51,27.98-62.5,62.5-62.5c34.51,0,62.5,27.99,62.5,62.5C321.9941,753.6693,294.0042,781.6494,259.4941,781.6494z"/>
<path fill="none" stroke="#000000" stroke-width="2" stroke-miterlimit="10" d="M329.1337,602.5677
	c35.9388-21.7432,162.7999-103.1505,159.5924-202.7006c-0.3675-11.4062-2.3878-21.3515-5.5032-36.6879
	c-7.5506-37.1694-22.3959-110.2487-80.7133-161.4267c-18.8825-16.5708-49.4521-41.7255-91.7198-46.7771
	c-15.1234-1.8075-33.0522-1.1454-53.579-13.0466c-8.2518-4.7843-25.5071-14.7887-32.3478-35.4783
	c-6.316-19.1023-1.3407-40.0136,9.3913-54.2609c19.6064-26.0284,58.72-30.2043,83.4783-18.7826
	c30.6082,14.1205,40.0869,52.4544,46.9565,87.6522c11.6291,59.5836,24.1114,152.8593,19.826,280.6956"/>
</svg>
