<?xml version="1.0" encoding="utf-8"?>
<!-- Generator: Adobe Illustrator 24.3.0, SVG Export Plug-In . SVG Version: 6.00 Build 0)  -->
<svg version="1.1" id="Layer_1" xmlns="http://www.w3.org/2000/svg" xmlns:xlink="http://www.w3.org/1999/xlink" x="0px" y="0px"
	 viewBox="0 0 500 250" style="enable-background:new 0 0 500 250;" xml:space="preserve">
<style type="text/css">
	.st0{fill-rule:evenodd;clip-rule:evenodd;fill:#FFFFFF;}
	.st1{fill-rule:evenodd;clip-rule:evenodd;}
</style>
<g>
	<path class="st0" d="M0,0h500v250H0V0z"/>
	<path class="st1" d="M377.14,124.07c-3.35-4.28-11.44-7.58-20.1-8.65c-23.72-3.16-53.77-1.91-70.15,8
		c-9.49,6.09-15.07,15.26-8,22.98c3.44,4.51,13.02,7.77,22.05,8.61c19.91,1.3,45.59,1.86,61.59-5.44
		C377.51,143.33,382.53,132.91,377.14,124.07L377.14,124.07z M328.02,142.4c-2.23,0.42-5.86,0.6-7.91-0.19
		c-4.75-1.3-3.17-4.23-2.61-6.19c2.23-3.63,4.75-8.75,13.77-9.44c2.96-0.14,6.7,0.51,7.91,2.23
		C340.02,134.07,337,139.41,328.02,142.4L328.02,142.4z M112.2,94.22l-16.75,24.29L82.72,94.22H48.89L7.35,153.51h39.53l15.75-22.61
		l11.72,22.61h35.84l41.53-59.29L112.2,94.22L112.2,94.22z M177.74,111.91c6.98-0.51,14.33-1.63,18.14-5.07
		c2.79-2.74,1.77-6.05-1.58-8.47c-5.4-2.84-12.84-3.12-20.75-2.88c-7.26,0.51-14.61,2.33-17.21,6.09c-1.21,2.37-0.93,5.26,2.23,7.16
		C163.23,111.59,170.77,112,177.74,111.91z M148.95,115.88l-26.46,37.68H160l26.46-37.68H148.95z"/>
	<path class="st1" d="M294.05,115.83H250.5l-21.77,12.73l23.78-34.33h-38.19l-41.53,59.29h38.19l10.72-14.9l6.03,14.9h39.86
		l-6.7-18.09L294.05,115.83L294.05,115.83z M465.51,115.38c-16.74,0-27.8,3.68-33.49,6.2l4.35-5.7h-39.52l-26.47,37.68h39.53
		l12.73-18.09c2.01-2.85,5.35-4.19,11.05-4.19s7.04,2.85,5.36,5.19l-12.06,17.08h38.19l17.08-24.45
		C486.96,122.41,482.26,115.38,465.51,115.38L465.51,115.38z M484.79,145.67c-4.35-0.01-7.89,1.75-7.9,3.93c0,0,0,0,0,0
		c-0.01,2.18,3.52,3.95,7.88,3.95c0.01,0,0.02,0,0.03,0c4.35,0,7.87-1.77,7.86-3.94c0,0,0-0.01,0-0.01
		C492.65,147.43,489.13,145.67,484.79,145.67C484.79,145.67,484.79,145.67,484.79,145.67z M484.79,153.08
		c-3.83,0-6.93-1.55-6.94-3.46c0-0.01,0-0.01,0-0.02c0-1.91,3.1-3.46,6.92-3.46c0,0,0.01,0,0.01,0c3.82,0,6.91,1.55,6.91,3.46
		c0.02,1.91-3.07,3.47-6.89,3.48C484.8,153.08,484.79,153.08,484.79,153.08z"/>
	<path class="st1" d="M488.83,148.57c0-0.37-0.33-0.76-0.99-0.95c-0.66-0.2-1.4-0.22-2.14-0.22h-3.84v4.41h1.07v-2.03h1.98
		l2.52,2.03h1.28l-2.66-2.03C487.61,149.76,488.83,149.44,488.83,148.57L488.83,148.57z M484.58,149.35h-1.65v-1.56h2.52
		c1.09,0,2.29,0.08,2.29,0.76C487.74,149.45,485.82,149.35,484.58,149.35z"/>
</g>
</svg>
