<?xml version="1.0" encoding="utf-8"?>
<!-- Generator: Adobe Illustrator 24.3.0, SVG Export Plug-In . SVG Version: 6.00 Build 0)  -->
<svg version="1.1" id="Layer_1" xmlns="http://www.w3.org/2000/svg" xmlns:xlink="http://www.w3.org/1999/xlink" x="0px" y="0px"
	 viewBox="0 0 65.61 66.62" style="enable-background:new 0 0 65.61 66.62;" xml:space="preserve">
<symbol  id="Go_to_Web" viewBox="-32 -33.9 64 67.8">
	<polygon points="5.42,3.72 5.42,-30.39 14.2,-21.62 20.57,-33.9 25.2,-31.5 19.06,-19.67 30.91,-19.67 	"/>
	<path d="M31.52-3.61c0.06,0.32,0.11,0.65,0.15,0.98c0.03,0.18,0.05,0.35,0.07,0.53c0.04,0.31,0.08,0.63,0.11,0.94
		c0.02,0.24,0.04,0.49,0.06,0.73c0.02,0.25,0.04,0.51,0.05,0.76C31.98,0.85,32,1.37,32,1.89c0,0.51-0.01,1.01-0.04,1.52
		c-0.02,0.32-0.04,0.63-0.07,0.95c-0.01,0.17-0.02,0.33-0.04,0.5c-0.04,0.4-0.09,0.8-0.14,1.2c-0.01,0.06-0.02,0.13-0.02,0.19
		c-0.06,0.42-0.12,0.84-0.2,1.26c0,0.03-0.01,0.05-0.01,0.08c0,0,0,0,0,0c-2.52,14.03-14.18,24.89-28.6,26.18c-0.02,0-0.04,0-0.06,0
		c-0.44,0.04-0.88,0.07-1.33,0.09C1,33.88,0.5,33.9,0,33.9s-1-0.01-1.5-0.04c-0.45-0.02-0.89-0.05-1.33-0.09c-0.02,0-0.04,0-0.06,0
		c-14.42-1.29-26.08-12.15-28.6-26.18c0,0,0,0,0,0c-0.01-0.03-0.01-0.05-0.01-0.08c-0.07-0.42-0.14-0.83-0.2-1.26
		c-0.01-0.06-0.02-0.13-0.02-0.19c-0.05-0.4-0.1-0.8-0.14-1.2c-0.02-0.17-0.02-0.33-0.04-0.5c-0.02-0.31-0.05-0.63-0.07-0.95
		C-31.99,2.9-32,2.4-32,1.89c0-0.5,0.01-1.01,0.04-1.51c0.02-0.33,0.04-0.66,0.07-0.99c0.01-0.15,0.02-0.3,0.03-0.45
		c0.04-0.42,0.09-0.83,0.14-1.24c0.01-0.05,0.01-0.1,0.02-0.14c0.06-0.45,0.13-0.89,0.21-1.33c0-0.01,0-0.02,0-0.02h0
		C-29.13-16.9-18.8-27.23-5.69-29.59c0,0,0,0,0-0.01c0.1-0.02,0.2-0.03,0.29-0.05c0.3-0.05,0.6-0.1,0.9-0.14
		c0.21-0.03,0.41-0.05,0.62-0.08c0.28-0.04,0.56-0.07,0.84-0.1c0.27-0.03,0.55-0.04,0.83-0.06c0.22-0.02,0.44-0.04,0.67-0.04
		C-1.03-30.09-0.52-30.1,0-30.1c0.03,0,0.07,0,0.09,0v0.3v7.16c-0.03,0-0.06-0.01-0.09-0.01c-1.43,0-2.83,0.13-4.2,0.37
		c-1.05,3.22-2.02,7.46-2.62,12.69C-4.61-9.73-2.33-9.81,0-9.81c0.03,0,0.07,0,0.09,0v4.26c-0.03,0-0.06,0-0.09,0
		c-2.55,0-4.96,0.09-7.21,0.24c-0.15,2.25-0.24,4.65-0.24,7.2c0,2.56,0.09,4.96,0.24,7.21C-4.96,9.25-2.55,9.34,0,9.34
		c2.55,0,4.95-0.09,7.19-0.24C7.2,8.97,7.21,8.85,7.22,8.72c0.65-0.23,1.27-0.6,1.8-1.08l2.62-2.41c-0.04,1.18-0.09,2.33-0.16,3.48
		c5.24-0.6,9.48-1.57,12.7-2.62c0.24-1.37,0.37-2.77,0.37-4.2c0-1.43-0.14-2.82-0.37-4.19c-1-0.33-2.09-0.64-3.29-0.95l2.51-2.3
		c0,0,0,0,0,0l5.91-5.43c0.99,2.27,1.73,4.68,2.18,7.18c0,0,0,0,0.01,0C31.5-3.73,31.51-3.67,31.52-3.61z M-9.05,24.7
		c-0.91-3.42-1.62-7.38-2.08-11.68c-4.31-0.45-8.26-1.16-11.68-2.07C-20.31,17.21-15.31,22.21-9.05,24.7z M-9.05-20.92
		c-6.26,2.49-11.26,7.49-13.76,13.76c3.43-0.91,7.38-1.62,11.68-2.07C-10.67-13.54-9.96-17.49-9.05-20.92z M-11.49-4.92
		c-5.24,0.6-9.47,1.57-12.69,2.62c-0.24,1.36-0.37,2.76-0.37,4.19c0,1.43,0.13,2.83,0.37,4.2c3.22,1.05,7.46,2.02,12.69,2.62
		c-0.14-2.21-0.21-4.49-0.21-6.82C-11.7-0.44-11.63-2.72-11.49-4.92z M0,13.59c-2.33,0-4.61-0.08-6.81-0.21
		c0.6,5.24,1.57,9.47,2.62,12.69c1.36,0.24,2.77,0.37,4.2,0.37c1.43,0,2.82-0.13,4.18-0.36c1.05-3.22,2.02-7.45,2.62-12.7
		C4.6,13.52,2.33,13.59,0,13.59z M11.12,13.02c-0.45,4.31-1.16,8.26-2.07,11.68c6.26-2.49,11.26-7.49,13.76-13.76
		C19.38,11.86,15.43,12.56,11.12,13.02z"/>
</symbol>
<use xlink:href="#Go_to_Web"  width="64" height="67.8" x="-32" y="-33.9" transform="matrix(1 0 0 -1 34.289 35.9064)" style="overflow:visible;"/>
<g>
</g>
<g>
</g>
<g>
</g>
<g>
</g>
<g>
</g>
<g>
</g>
<g>
</g>
<g>
</g>
<g>
</g>
<g>
</g>
<g>
</g>
<g>
</g>
<g>
</g>
<g>
</g>
<g>
</g>
<g>
</g>
<g>
</g>
<g>
</g>
<g>
</g>
<g>
</g>
<g>
</g>
<g>
</g>
<g>
</g>
<g>
</g>
<g>
</g>
<g>
</g>
<g>
</g>
<g>
</g>
<g>
</g>
<g>
</g>
<g>
</g>
<g>
</g>
<g>
</g>
<g>
</g>
<g>
</g>
<g>
</g>
<g>
</g>
</svg>
