<?xml version="1.0" encoding="utf-8"?>
<!-- Generator: Adobe Illustrator 24.3.0, SVG Export Plug-In . SVG Version: 6.00 Build 0)  -->
<svg version="1.1" id="Layer_1" xmlns="http://www.w3.org/2000/svg" xmlns:xlink="http://www.w3.org/1999/xlink" x="0px" y="0px"
	 viewBox="0 0 80.16 114.09" style="enable-background:new 0 0 80.16 114.09;" xml:space="preserve">
<style type="text/css">
	.st0{stroke:#1D1D1B;stroke-width:3.3758;stroke-linecap:round;stroke-linejoin:round;}
	.st1{fill:#C0C0C0;}
	.st2{fill:#FFFFFF;}
	.st3{fill:none;stroke:#1D1D1B;stroke-width:3.3758;stroke-linecap:round;stroke-linejoin:round;}
</style>
<symbol  id="Flask" viewBox="-32.04 -53.02 64.07 106.05">
	<path class="st0" d="M19.93-51.33c15.05,0,9.36,9.37,9.36,9.37L7.75-2.49v16.78v1.6c0.31,2.07,3.11,1.18,4.35,2.37
		c0.62,1.48,0.62,4.45,0.62,4.45h-25.46c0,0,0-2.97,0.62-4.45c1.25-1.19,4.05-0.3,4.36-2.37V-2.49L-29.3-41.97
		c0,0-5.68-9.37,9.36-9.37L19.93-51.33L19.93-51.33z"/>
	<g>
		<path class="st1" d="M6.26-3.3c-0.13,0.25-0.2,0.53-0.2,0.81v18.38c0,0.08,0.01,0.17,0.02,0.25c0.36,2.42,2.53,2.81,3.7,3.02
			c0.28,0.05,0.64,0.13,0.9,0.22c0.12,0.47,0.21,1.03,0.27,1.63c-2.84,0-19.06,0-21.91,0c0.06-0.6,0.15-1.16,0.27-1.63
			c0.26-0.09,0.62-0.17,0.9-0.22c1.17-0.21,3.33-0.6,3.7-3.02c0.01-0.08,0.02-0.17,0.02-0.25V-2.49c0-0.28-0.07-0.56-0.21-0.81
			c0,0-7.08-12.98-13.13-24.07H19.4L6.26-3.3z"/>
		<path class="st2" d="M19.4-27.37h-38.81c-4.5-8.25-8.42-15.44-8.44-15.47c-0.01-0.02-0.81-1.42-0.81-2.85
			c0-0.49,0.1-0.99,0.35-1.44c0.93-1.63,3.9-2.52,8.38-2.52h39.86c4.48,0,7.45,0.9,8.38,2.52c0.25,0.45,0.35,0.94,0.35,1.43
			c0,1.44-0.81,2.85-0.84,2.91L19.4-27.37z"/>
	</g>
	<g>
		<line class="st3" x1="-7.34" y1="-22.94" x2="-18.01" y2="-22.94"/>
		<line class="st3" x1="-13.3" y1="-32.77" x2="-23.96" y2="-32.77"/>
		<line class="st3" x1="-1.99" y1="-12.23" x2="-12.66" y2="-12.23"/>
		<line class="st3" x1="-18.57" y1="-43.25" x2="-29.24" y2="-43.25"/>
	</g>
	<path class="st1" d="M6.74,34.26c0-4.1-3.32-7.42-7.41-7.42s-7.41,3.32-7.41,7.42s3.32,7.41,7.41,7.41
		C3.42,41.68,6.74,38.36,6.74,34.26z"/>
	<path class="st1" d="M5.38,41.33c0-2.38-1.93-4.31-4.3-4.31c-2.38,0-4.31,1.93-4.31,4.31s1.93,4.31,4.31,4.31
		C3.45,45.64,5.38,43.71,5.38,41.33z"/>
	<path class="st1" d="M-1.36,50.71c0-1.27-1.03-2.31-2.31-2.31c-1.27,0-2.31,1.03-2.31,2.31c0,1.27,1.03,2.31,2.31,2.31
		C-2.39,53.02-1.36,51.98-1.36,50.71z"/>
</symbol>
<g>
	<defs>
		<rect id="SVGID_1_" x="8.04" y="0" width="64.07" height="106.04"/>
	</defs>
	<clipPath id="SVGID_2_">
		<use xlink:href="#SVGID_1_"  style="overflow:visible;"/>
	</clipPath>
	<g style="clip-path:url(#SVGID_2_);">
		
			<use xlink:href="#Flask"  width="64.07" height="106.05" id="XMLID_1_" x="-32.04" y="-53.02" transform="matrix(1 0 0 -1 37.135 53.0213)" style="overflow:visible;"/>
	</g>
</g>
<g>
</g>
<g>
</g>
<g>
</g>
</svg>
