<?xml version="1.0" encoding="utf-8"?>
<!-- Generator: Adobe Illustrator 24.3.0, SVG Export Plug-In . SVG Version: 6.00 Build 0)  -->
<svg version="1.1" id="Layer_1" xmlns="http://www.w3.org/2000/svg" xmlns:xlink="http://www.w3.org/1999/xlink" x="0px" y="0px"
	 viewBox="0 0 65.61 66.62" style="enable-background:new 0 0 65.61 66.62;" xml:space="preserve">
<style type="text/css">
	.st0{fill:#C0C0C0;stroke:#000000;stroke-miterlimit:10;}
</style>
<symbol  id="Video" viewBox="-32.78 -34.31 65.61 66.62">
	<path class="st0" d="M31.65-26.7c-0.83-0.08-1.58-0.11-2.25-0.11c-3.37,0.01-4.65,0.82-5.16,1.34c-0.51,0.51-0.75,1.24-0.76,2.31
		c0,0.64,0.11,1.31,0.23,1.83c4.97,5.64,8,13.04,8,21.15c0,17.67-14.33,32-32,32c-17.67,0-32-14.33-32-32c0-17.67,14.33-32,32-32
		c6.43,0,12.42,1.9,17.43,5.17c0.43-1.17,1.09-2.34,2.12-3.38c2.22-2.25,5.63-3.41,10.05-3.41c0.03,0,0.05,0,0.08,0
		c0.91,0,1.86,0.04,2.88,0.14L31.65-26.7z M-17.78-9.19c-4.35,0-7.87,4.03-7.87,9s3.53,9,7.87,9s7.87-4.03,7.87-9
		S-13.43-9.19-17.78-9.19z M-0.28-25.56c-4.97,0-9,3.53-9,7.88s4.03,7.88,9,7.88s9-3.53,9-7.88S4.69-25.56-0.28-25.56z M-4.62-0.19
		c0,2.39,1.94,4.33,4.33,4.33c2.39,0,4.33-1.94,4.33-4.33c0-2.39-1.94-4.33-4.33-4.33C-2.68-4.52-4.62-2.58-4.62-0.19z M-0.28,9.44
		c-4.97,0-9,3.53-9,7.88s4.03,7.88,9,7.88s9-3.53,9-7.88S4.69,9.44-0.28,9.44z M9.34-0.19c0,4.97,3.53,9,7.88,9s7.88-4.03,7.88-9
		s-3.53-9-7.88-9S9.34-5.16,9.34-0.19z"/>
</symbol>
<use xlink:href="#Video"  width="65.61" height="66.62" id="XMLID_1_" x="-32.78" y="-34.31" transform="matrix(1 0 0 -1 32.7832 33.3115)" style="overflow:visible;"/>
<g>
</g>
<g>
</g>
<g>
</g>
<g>
</g>
<g>
</g>
<g>
</g>
<g>
</g>
<g>
</g>
<g>
</g>
<g>
</g>
<g>
</g>
<g>
</g>
<g>
</g>
<g>
</g>
<g>
</g>
<g>
</g>
<g>
</g>
<g>
</g>
<g>
</g>
<g>
</g>
<g>
</g>
<g>
</g>
<g>
</g>
<g>
</g>
<g>
</g>
<g>
</g>
<g>
</g>
<g>
</g>
<g>
</g>
<g>
</g>
<g>
</g>
<g>
</g>
<g>
</g>
<g>
</g>
<g>
</g>
<g>
</g>
<g>
</g>
</svg>
