<?xml version="1.0" encoding="utf-8"?>
<!-- Generator: Adobe Illustrator 24.3.0, SVG Export Plug-In . SVG Version: 6.00 Build 0)  -->
<svg version="1.1" id="Layer_1" xmlns="http://www.w3.org/2000/svg" xmlns:xlink="http://www.w3.org/1999/xlink" x="0px" y="0px"
	 viewBox="0 0 64 64.5" style="enable-background:new 0 0 64 64.5;" xml:space="preserve">
<style type="text/css">
	.st0{fill:#EA8E8E;}
</style>
<symbol  id="Shopping_Cart" viewBox="-35.2 -31.5 70.5 63">
	<path d="M31.8-10l-49.3,0v2.4l45.2,6c2.4,0.4,4.1,2.3,4.2,4.7v14.9c0,2.5-2,4.5-4.5,4.5h-44.9V26c0,3-2.5,5.5-5.5,5.5h-8.7
		c-1.9,0-3.5-1.6-3.5-3.5s1.6-3.5,3.5-3.5h7.2v-36c0-3,2.5-5.5,5.5-5.5h50.8c1.9,0,3.5,1.6,3.5,3.5C35.2-11.6,33.7-10,31.8-10z
		 M2.2,0.1l-8.6-1.1v18.6h8.6V0.1z M6.2,17.6h8.6V1.7L6.2,0.6V17.6z M26.9,3.3l-8.1-1.1v15.3h8.1V3.3z M-10.4,17.6V-1.6l-7.1-0.9
		v20.1H-10.4z"/>
	<path d="M-8.6-17.7c-3.8,0-6.9-3.1-6.9-6.9c0-3.8,3.1-6.9,6.9-6.9c3.8,0,6.9,3.1,6.9,6.9C-1.7-20.8-4.8-17.7-8.6-17.7z"/>
	<path d="M24.8-17.7c-3.8,0-6.9-3.1-6.9-6.9c0-3.8,3.1-6.9,6.9-6.9c3.8,0,6.9,3.1,6.9,6.9C31.7-20.8,28.6-17.7,24.8-17.7z"/>
</symbol>
<g>
	<defs>
		<rect id="SVGID_1_" x="-1.6" y="0" width="65.6" height="66.6"/>
	</defs>
	<clipPath id="SVGID_2_">
		<use xlink:href="#SVGID_1_"  style="overflow:visible;"/>
	</clipPath>
	<g style="clip-path:url(#SVGID_2_);">
		
			<use xlink:href="#Shopping_Cart"  width="70.5" height="63" id="XMLID_1_" x="-35.2" y="-31.5" transform="matrix(0.8872 0 0 -0.9932 32.096 32.1321)" style="overflow:visible;"/>
	</g>
</g>
<rect x="30.9" y="-9.6" transform="matrix(-0.7071 0.7071 -0.7071 -0.7071 78.9476 32.5633)" class="st0" width="3.8" height="84.4"/>
</svg>
