<?xml version="1.0" encoding="utf-8"?>
<!-- Generator: Adobe Illustrator 24.3.0, SVG Export Plug-In . SVG Version: 6.00 Build 0)  -->
<svg version="1.1" id="Layer_1" xmlns="http://www.w3.org/2000/svg" xmlns:xlink="http://www.w3.org/1999/xlink" x="0px" y="0px"
	 viewBox="0 0 64 59.23" style="enable-background:new 0 0 64 59.23;" xml:space="preserve">
<symbol  id="Announcement" viewBox="-32 -29.61 64 59.23">
	<path d="M29.52,16.23c-0.39,0-0.81-0.08-1.25-0.25l-9.37-3.6c-0.69,0.57-1.45,1.03-2.25,1.32l-43,15.58
		c-0.63,0.23-1.24,0.34-1.81,0.34c-2.22,0-3.83-1.66-3.83-4.29v-42.39c0-2.6,1.57-4.23,3.74-4.23c0.58,0,1.21,0.12,1.87,0.37
		L1.04-10.49c0.24-0.67,0.58-1.47,1.11-2.29c1.26-2.07,3.94-4.27,8-4.27c0.04,0,0.08,0,0.12,0c0.11,0,0.22,0.01,0.33,0.02
		c0.05-0.15,0.09-0.3,0.14-0.43l6.1-11.36c0.6-0.92,1.75-1.06,2.56-0.32l7.3,6.76c0.81,0.75,0.97,2.11,0.37,3.03l-2.8,5.38
		c-0.37,1.04-0.81,2.77-0.99,3.86l-0.66,4.63c-0.03,0.83-0.05,2.11-0.05,2.81l5.71-2.2c0.44-0.17,0.86-0.25,1.25-0.25
		C30.96-5.12,32-4.03,32-2.3v15.71C32,15.14,30.96,16.23,29.52,16.23z M-26,22.76L14.6,8.05c0.2-0.07,0.41-0.22,0.61-0.42
		c-0.04-0.23-0.06-0.46-0.06-0.69V4.17c0-0.7,0.19-1.42,0.48-2.11C15.3,1.6,14.9,1.21,14.54,1.07L-26-14.37V22.76z M5.51-10.63
		c-0.34,0.54-0.58,1.1-0.73,1.56l4.15,1.58l0.75-5.52C7.36-12.82,6.31-11.79,5.51-10.63z"/>
</symbol>
<use xlink:href="#Announcement"  width="64" height="59.23" x="-32" y="-29.61" transform="matrix(-1 0 0 -1 32 29.6133)" style="overflow:visible;"/>
<g>
</g>
<g>
</g>
<g>
</g>
<g>
</g>
<g>
</g>
<g>
</g>
<g>
</g>
<g>
</g>
<g>
</g>
<g>
</g>
<g>
</g>
<g>
</g>
<g>
</g>
<g>
</g>
<g>
</g>
<g>
</g>
<g>
</g>
<g>
</g>
<g>
</g>
<g>
</g>
<g>
</g>
<g>
</g>
<g>
</g>
<g>
</g>
<g>
</g>
<g>
</g>
<g>
</g>
<g>
</g>
<g>
</g>
<g>
</g>
<g>
</g>
<g>
</g>
<g>
</g>
<g>
</g>
<g>
</g>
<g>
</g>
<g>
</g>
</svg>
