<?xml version="1.0" encoding="utf-8"?>
<!-- Generator: Adobe Illustrator 24.3.0, SVG Export Plug-In . SVG Version: 6.00 Build 0)  -->
<svg version="1.1" xmlns="http://www.w3.org/2000/svg" xmlns:xlink="http://www.w3.org/1999/xlink" x="0px" y="0px"
	 viewBox="0 0 500 250" style="enable-background:new 0 0 500 250;" xml:space="preserve">
<style type="text/css">
	.st0{fill:#FFFFFF;}
</style>
<g id="BG">
	<rect class="st0" width="500" height="250"/>
</g>
<g id="svg28944" inkscape:version="0.92.0 r15299" sodipodi:docname="zoom.svg" xmlns:cc="http://creativecommons.org/ns#" xmlns:dc="http://purl.org/dc/elements/1.1/" xmlns:inkscape="http://www.inkscape.org/namespaces/inkscape" xmlns:rdf="http://www.w3.org/1999/02/22-rdf-syntax-ns#" xmlns:sodipodi="http://sodipodi.sourceforge.net/DTD/sodipodi-0.dtd" xmlns:svg="http://www.w3.org/2000/svg">
	<g id="layer1" transform="translate(-71.040473,-177.68244)" inkscape:groupmode="layer" inkscape:label="Layer 1">
		<g id="g28914" transform="translate(-21.922225,-90.032638)">
			<path id="path28884" inkscape:connector-curvature="0" d="M326.35,432.55l-18.37,79.18h-74.62c-4.72,0-9.39-6.62-12.72-18.1
				c-3.33-11.43-5.26-27.55-5.26-43.75V335.57c0-16.2,1.93-32.31,5.26-43.72c3.33-11.47,8-18.13,12.72-18.13H308l18.37,79.16
				l18.37-79.16h74.64c4.72,0,9.39,6.69,12.71,18.16c3.33,11.38,5.28,27.5,5.28,43.72v114.3c0,16.2-1.94,32.31-5.28,43.75
				c-3.32,11.47-7.99,18.1-12.71,18.1h-74.65L326.35,432.55L326.35,432.55z M115.63,461.92c-1.15,0-2.33-1.55-3.19-4.38
				c-0.84-2.78-1.37-6.69-1.42-10.72c-0.07-4.06,0.35-8.16,1.1-11.18c0.76-3.08,1.88-5.04,3.06-5.44l77.9-26.28
				c4.39-1.47,8.6-8.75,11.56-20.04c2.97-11.25,4.66-26.38,4.66-41.57v-6.74c0-16.21-1.94-32.33-5.26-43.72
				c-3.32-11.47-7.99-18.16-12.71-18.16H97.78v49.88h90.59c1.17,0,2.35,1.55,3.19,4.35c0.85,2.78,1.38,6.71,1.42,10.7
				c0.08,4.06-0.35,8.15-1.11,11.19c-0.76,3.03-1.89,5.02-3.06,5.37l-77.9,26.38c-4.39,1.49-8.59,8.8-11.56,20
				c-2.97,11.23-4.65,26.4-4.65,41.57v6.75c0,16.2,1.94,32.31,5.25,43.75c3.33,11.47,8.01,18.1,12.72,18.1h93.55v-49.81
				L115.63,461.92z M340.4,413.25l11.27,48.57h67.59c0.96,0,1.87-1.35,2.55-3.63c0.67-2.33,1.03-5.52,1.03-8.78V335.96
				c0-3.25-0.36-6.5-1.03-8.77c-0.67-2.31-1.6-3.59-2.55-3.59H351.7l-11.31,48.62h-28.1l-11.28-48.62h-67.57
				c-0.94,0-1.88,1.27-2.54,3.59c-0.66,2.27-1.05,5.52-1.05,8.77v113.6c0,3.22,0.38,6.45,1.05,8.72c0.67,2.31,1.6,3.64,2.54,3.64
				H301l11.28-48.67h28.11L340.4,413.25z M490.2,384.7c0,16.16,1.94,32.34,5.27,43.72c3.34,11.44,8.03,18.16,12.72,18.16h4.51
				c4.72,0,9.39-6.69,12.73-18.16c3.31-11.38,5.24-27.56,5.24-43.72v-48.74c0-3.25,0.37-6.5,1.04-8.77
				c0.66-2.31,1.61-3.59,2.55-3.59h22.91c0.94,0,1.86,1.27,2.55,3.59c0.65,2.27,1.05,5.52,1.05,8.77v175.78h14.44l0.03-176.15
				c0-16.21-1.92-32.33-5.24-43.72c-3.34-11.47-8.02-18.16-12.71-18.16h-23.12c-4.71,0-9.39,6.69-12.71,18.16
				c-3.33,11.4-5.28,27.51-5.28,43.72v41.49c0,5.17-0.62,10.32-1.68,13.98c-1.06,3.7-2.55,5.79-4.05,5.79
				c-1.52,0-3.02-2.11-4.06-5.78c-1.07-3.66-1.69-8.8-1.69-13.98v-41.51c0-16.21-1.93-32.33-5.26-43.72
				c-3.33-11.47-8.02-18.16-12.73-18.16h-23.09c-4.7,0-9.37,6.69-12.73,18.16c-3.32,11.4-5.25,27.51-5.25,43.72v176.15h14.48V335.96
				c0-3.25,0.4-6.5,1.06-8.77c0.66-2.31,1.6-3.59,2.53-3.59h22.88c0.96,0,1.9,1.27,2.56,3.59c0.67,2.27,1.05,5.52,1.05,8.77
				L490.2,384.7L490.2,384.7z"/>
		</g>
	</g>
</g>
</svg>
